#!OML:ASF X:\für Bonn\!DataBase\2005_08_12_Daniel\c3d\Daniel.ASF
:FULLY-SPECIFIED
:DEGREES
712
root 1.41313 17.3808 0.149185 -5.11503 -12.6019 -10.8718
lowerback 15.1799 -0.126214 9.24913
upperback 2.80503 1.43859 2.45361
thorax -5.35171 0.561122 -2.89002
lowerneck 2.21964 6.73025 2.09337
upperneck 10.3346 9.42752 -5.0328
head 3.34222 4.59438 -1.7774
rclavicle 1.41634e-015 -1.31198e-014
rhumerus -30.716 -2.9886 -83.8114
rradius 26.9923
rwrist 4.88414
rhand -20.4795 15.8309
rfingers 7.12502
rthumb 5.87689 -14.0676
lclavicle 1.41634e-015 -1.31198e-014
lhumerus -40.9356 32.2495 69.8408
lradius 18.6661
lwrist -34.7708
lhand -7.93558 -6.94984
lfingers 7.12502
lthumb 17.9708 22.2399
rfemur 4.55543 8.17759 32.193
rtibia 29.402
rfoot -19.3155 -4.49505
rtoes -15.2971
lfemur -27.8289 6.99892 -15.4874
ltibia 64.9125
lfoot -15.8937 -8.2046
ltoes -9.83405
713
root 1.37542 17.3964 0.331775 -4.81537 -12.4212 -10.8497
lowerback 14.8603 0.0272957 9.22138
upperback 2.70484 1.60355 2.39333
thorax -5.26421 0.643713 -2.96487
lowerneck 2.26832 6.70066 1.94251
upperneck 10.2881 9.37023 -4.84429
head 3.29324 4.56794 -1.6934
rclavicle -1.09332e-015 -8.15017e-015
rhumerus -30.3033 -2.2927 -84.0595
rradius 27.5497
rwrist 4.69765
rhand -20.3987 16.1359
rfingers 7.12502
rthumb 5.9549 -13.7604
lclavicle -1.09332e-015 -8.15017e-015
lhumerus -41.5502 32.0204 69.1468
lradius 18.9713
lwrist -33.2318
lhand -8.12286 -7.13522
lfingers 7.12502
lthumb 17.7906 22.071
rfemur 5.47859 8.52181 32.4117
rtibia 28.4318
rfoot -19.3622 -5.09884
rtoes -15.5618
lfemur -28.3994 6.84451 -15.6685
ltibia 62.4191
lfoot -16.2679 -7.45359
ltoes -8.71428
714
root 1.33839 17.4147 0.518193 -4.52119 -12.2456 -10.7884
lowerback 14.5055 0.187893 9.13766
upperback 2.61115 1.76537 2.33945
thorax -5.15213 0.727048 -2.99881
lowerneck 2.31978 6.66548 1.76012
upperneck 10.2487 9.30852 -4.68546
head 3.24653 4.53713 -1.61422
rclavicle 2.45499e-014 5.50634e-014
rhumerus -29.8312 -1.611 -84.2465
rradius 28.0018
rwrist 4.56311
rhand -20.4483 16.515
rfingers 7.12502
rthumb 5.90699 -13.3827
lclavicle 2.45499e-014 5.50634e-014
lhumerus -42.2111 31.8685 68.4122
lradius 19.2885
lwrist -31.9439
lhand -8.27346 -7.24277
lfingers 7.12502
lthumb 17.6457 21.9765
rfemur 6.52265 8.8406 32.5784
rtibia 27.2505
rfoot -19.3479 -5.68277
rtoes -15.7759
lfemur -28.8551 6.64756 -15.8679
ltibia 59.7795
lfoot -16.6219 -6.70851
ltoes -7.59962
715
root 1.30243 17.4321 0.707562 -4.20318 -12.0719 -10.7659
lowerback 14.0697 0.343933 9.12078
upperback 2.53837 1.91982 2.26782
thorax -4.97057 0.809318 -3.08364
lowerneck 2.41124 6.62475 1.6202
upperneck 10.1594 9.23734 -4.53336
head 3.17825 4.5043 -1.54693
rclavicle -1.29955e-014 -2.5842e-014
rhumerus -29.304 -0.96581 -84.4487
rradius 28.3962
rwrist 4.36828
rhand -20.4746 16.8598
rfingers 7.12502
rthumb 5.88165 -13.0386
lclavicle -1.29955e-014 -2.5842e-014
lhumerus -42.8576 31.6771 67.7022
lradius 19.6962
lwrist -30.7618
lhand -8.38953 -7.23594
lfingers 7.12502
lthumb 17.534 21.9934
rfemur 7.66789 9.15423 32.7913
rtibia 25.8716
rfoot -19.2525 -6.29307
rtoes -15.9641
lfemur -29.2531 6.34022 -15.986
ltibia 56.9997
lfoot -16.9539 -5.92011
ltoes -7.50787
716
root 1.26708 17.4443 0.898343 -3.91132 -11.9107 -10.7391
lowerback 13.6246 0.48592 9.08461
upperback 2.49981 2.04991 2.20058
thorax -4.75027 0.882651 -3.14612
lowerneck 2.46459 6.60687 1.45702
upperneck 10.0604 9.19855 -4.40595
head 3.1155 4.48544 -1.48186
rclavicle 1.73688e-014 2.38542e-015
rhumerus -28.7108 -0.30717 -84.6324
rradius 28.697
rwrist 4.23355
rhand -20.617 17.2576
rfingers 7.12502
rthumb 5.74417 -12.6445
lclavicle 1.73688e-014 2.38542e-015
lhumerus -43.4952 31.4821 67.0167
lradius 20.1751
lwrist -29.6541
lhand -8.49334 -7.10263
lfingers 7.12502
lthumb 17.4341 22.1355
rfemur 8.93757 9.5012 33.0142
rtibia 24.3444
rfoot -19.1404 -6.88834
rtoes -15.9323
lfemur -29.557 5.88233 -16.0572
ltibia 54.1028
lfoot -17.2827 -5.05708
ltoes -8.10336
717
root 1.23339 17.4479 1.08934 -3.64518 -11.7699 -10.7119
lowerback 13.2274 0.640695 9.07141
upperback 2.45097 2.20605 2.11255
thorax -4.56188 0.966788 -3.24702
lowerneck 2.54097 6.55239 1.32932
upperneck 9.94471 9.11 -4.27928
head 3.04349 4.44377 -1.42554
rclavicle 4.17448e-015 -1.59028e-015
rhumerus -28.1697 0.239978 -84.7862
rradius 28.9637
rwrist 4.15787
rhand -20.774 17.6648
rfingers 7.12502
rthumb 5.59257 -12.2414
lclavicle 4.17448e-015 -1.59028e-015
lhumerus -44.0592 31.0554 66.4627
lradius 20.6792
lwrist -28.3785
lhand -8.57448 -6.81445
lfingers 7.12502
lthumb 17.356 22.4306
rfemur 10.3041 9.78113 33.2123
rtibia 22.6974
rfoot -18.9959 -7.41943
rtoes -15.9683
lfemur -29.7817 5.25639 -16.0609
ltibia 51.1764
lfoot -17.632 -4.0253
ltoes -8.92643
718
root 1.20289 17.4457 1.27926 -3.3805 -11.6607 -10.688
lowerback 12.8984 0.779657 9.05264
upperback 2.37627 2.35133 2.03525
thorax -4.43993 1.04212 -3.33226
lowerneck 2.58219 6.52555 1.20647
upperneck 9.86259 9.06396 -4.19682
head 2.99434 4.42103 -1.38175
rclavicle 2.08724e-015 7.55382e-015
rhumerus -27.6759 0.790309 -84.8949
rradius 29.2456
rwrist 4.1436
rhand -20.8968 17.9612
rfingers 7.12502
rthumb 5.47397 -11.9481
lclavicle 2.08724e-015 7.55382e-015
lhumerus -44.7249 30.5634 65.9292
lradius 21.2842
lwrist -27.0923
lhand -8.67064 -6.43747
lfingers 7.12502
lthumb 17.2635 22.8157
rfemur 11.7486 10.0548 33.3993
rtibia 20.9288
rfoot -18.8255 -7.91148
rtoes -15.9069
lfemur -30.0128 4.63067 -16.0067
ltibia 48.3397
lfoot -18.0742 -2.9542
ltoes -10.3005
719
root 1.17433 17.4406 1.46905 -3.15622 -11.5994 -10.6627
lowerback 12.6743 0.932196 9.0348
upperback 2.29092 2.52699 1.94212
thorax -4.38211 1.12916 -3.44155
lowerneck 2.49441 6.48367 1.17383
upperneck 9.88624 9.00547 -4.13837
head 3.01092 4.39129 -1.35546
rclavicle 4.27387e-015 -1.59028e-015
rhumerus -27.2256 1.30341 -84.9941
rradius 29.5561
rwrist 4.12107
rhand -20.901 18.1744
rfingers 7.12502
rthumb 5.46997 -11.735
lclavicle 4.27387e-015 -1.59028e-015
lhumerus -45.3105 29.9527 65.4672
lradius 21.8152
lwrist -25.7209
lhand -8.89373 -6.05368
lfingers 7.12502
lthumb 17.0487 23.2182
rfemur 13.338 10.2562 33.5594
rtibia 18.9663
rfoot -18.6011 -8.33673
rtoes -16.0987
lfemur -30.2359 3.93594 -15.8887
ltibia 45.688
lfoot -18.6893 -1.75091
ltoes -10.995
720
root 1.14754 17.4374 1.65777 -2.98635 -11.5645 -10.6705
lowerback 12.5635 1.07462 9.02757
upperback 2.21115 2.70443 1.87285
thorax -4.38078 1.2145 -3.53475
lowerneck 2.35668 6.44147 1.14781
upperneck 9.9173 8.95174 -4.13325
head 3.04297 4.36188 -1.34566
rclavicle 2.06736e-014 9.14409e-015
rhumerus -26.7592 1.73202 -85.0334
rradius 29.8181
rwrist 4.27019
rhand -20.9165 18.3529
rfingers 7.12502
rthumb 5.45496 -11.5569
lclavicle 2.06736e-014 9.14409e-015
lhumerus -45.8949 29.2893 65.0664
lradius 22.3504
lwrist -24.3307
lhand -9.16971 -5.65782
lfingers 7.12502
lthumb 16.7831 23.6368
rfemur 15.1634 10.4385 33.7502
rtibia 16.6978
rfoot -18.2707 -8.7181
rtoes -16.2285
lfemur -30.4158 3.25942 -15.6893
ltibia 43.3161
lfoot -19.4362 -0.492541
ltoes -11.1186
721
root 1.12376 17.4393 1.84755 -2.81812 -11.5507 -10.6769
lowerback 12.4618 1.21403 9.03456
upperback 2.14127 2.87971 1.79696
thorax -4.37257 1.2991 -3.6421
lowerneck 2.14224 6.37151 1.25361
upperneck 9.96594 8.88047 -4.34747
head 3.11501 4.32071 -1.42709
rclavicle 4.39314e-014 4.21423e-014
rhumerus -26.3197 2.21008 -85.0693
rradius 30.1598
rwrist 4.36813
rhand -20.8437 18.3389
rfingers 7.12502
rthumb 5.52522 -11.5691
lclavicle 4.39314e-014 4.21423e-014
lhumerus -46.4446 28.7065 64.6219
lradius 22.7949
lwrist -23.1185
lhand -9.55919 -5.37645
lfingers 7.12502
lthumb 16.4081 23.9496
rfemur 17.1884 10.5849 33.8887
rtibia 14.0421
rfoot -17.7754 -9.03659
rtoes -16.2454
lfemur -30.6963 2.36061 -15.3976
ltibia 41.2278
lfoot -20.2005 0.956821
ltoes -11.4904
722
root 1.10053 17.4374 2.03757 -2.68266 -11.5298 -10.699
lowerback 12.4099 1.34659 9.04831
upperback 2.06678 3.05266 1.71846
thorax -4.39598 1.3808 -3.75733
lowerneck 1.96916 6.31625 1.33237
upperneck 10.0051 8.81906 -4.45567
head 3.16877 4.28715 -1.47118
rclavicle 3.84151e-014 1.07344e-014
rhumerus -25.9605 2.61159 -85.087
rradius 30.5406
rwrist 4.54286
rhand -20.7669 18.3201
rfingers 7.12502
rthumb 5.59936 -11.586
lclavicle 3.84151e-014 1.07344e-014
lhumerus -46.9973 28.342 63.9821
lradius 23.0927
lwrist -22.3483
lhand -10.0298 -5.24162
lfingers 7.12502
lthumb 15.955 24.1212
rfemur 19.6031 10.7782 34.0631
rtibia 10.7336
rfoot -17.0326 -9.42139
rtoes -16.1768
lfemur -31.0668 1.22993 -14.9874
ltibia 39.4857
lfoot -20.9548 2.58553
ltoes -11.7803
